<svg width="109" height="99" viewBox="0 0 109 99" fill="none" xmlns="http://www.w3.org/2000/svg">
<path d="M72.1528 65.8456C73.0253 65.9264 73.809 66.1607 74.5038 66.5485C75.2147 66.9362 75.8206 67.4371 76.3215 68.0512C76.8224 68.6652 77.2022 69.368 77.4607 70.1598C77.7354 70.9515 77.8727 71.7756 77.8727 72.632C77.8727 73.0198 77.8485 73.4075 77.8 73.7953H69.4867V71.6625H75.0855C75.0855 71.2424 75.0127 70.8384 74.8673 70.4506C74.7381 70.0628 74.5361 69.7074 74.2614 69.3842C74.0029 69.0449 73.6959 68.7621 73.3404 68.5359C72.9849 68.3097 72.589 68.1723 72.1528 68.1239V65.8456ZM72.0558 77.3582C72.2336 77.3582 72.4517 77.342 72.7102 77.3097C72.9849 77.2612 73.2677 77.1885 73.5585 77.0916C73.8655 76.9785 74.1644 76.8411 74.4553 76.6796C74.7623 76.518 75.0289 76.3241 75.2551 76.0979L76.3215 77.7217C75.7883 78.3842 75.1662 78.8851 74.4553 79.2244C73.7443 79.5638 72.8395 79.7334 71.7407 79.7334C70.852 79.7334 70.0199 79.5557 69.2443 79.2002C68.4687 78.8286 67.8062 78.3277 67.2569 77.6975C66.7075 77.0673 66.2712 76.3322 65.9481 75.4919C65.6249 74.6517 65.4633 73.7469 65.4633 72.7774C65.4633 71.8564 65.6088 70.9838 65.8996 70.1598C66.2066 69.3357 66.6186 68.6167 67.1357 68.0027C67.6527 67.3725 68.2506 66.8635 68.9292 66.4757C69.624 66.0879 70.3673 65.8698 71.159 65.8213V68.1481C70.5612 68.2612 70.0684 68.5036 69.6806 68.8752C69.2928 69.2468 68.9858 69.675 68.7596 70.1598C68.5495 70.6284 68.396 71.1131 68.2991 71.614C68.2183 72.1149 68.1779 72.5431 68.1779 72.8986C68.1779 73.5287 68.2506 74.1185 68.396 74.6679C68.5576 75.2011 68.8 75.6697 69.1231 76.0736C69.4463 76.4614 69.8422 76.7765 70.3107 77.0189C70.7955 77.2451 71.3772 77.3582 72.0558 77.3582ZM90.985 69.5054C90.7426 69.2145 90.4033 68.9479 89.967 68.7056C89.5469 68.447 88.9814 68.2935 88.2704 68.245V65.9183C89.1591 65.9668 89.9185 66.1607 90.5487 66.5C91.195 66.8231 91.7767 67.2998 92.2938 67.93L90.985 69.5054ZM88.2704 77.334C88.8521 77.2693 89.3449 77.132 89.7489 76.9219C90.169 76.6957 90.5649 76.4372 90.9365 76.1463L92.0272 77.7217C91.5263 78.3519 90.985 78.8367 90.4033 79.176C89.8216 79.4991 89.1106 79.6849 88.2704 79.7334V77.334ZM81.5083 72.8016C81.5083 71.8806 81.6375 71.0162 81.8961 70.2083C82.1708 69.4003 82.5666 68.6894 83.0837 68.0754C83.6007 67.4614 84.2067 66.9686 84.9015 66.5969C85.6124 66.2091 86.4042 65.9829 87.2767 65.9183V68.2693C86.4688 68.447 85.8225 68.9479 85.3377 69.772C84.853 70.5799 84.6106 71.5655 84.6106 72.7289C84.6106 73.3268 84.6672 73.8923 84.7803 74.4255C84.9095 74.9426 85.0873 75.4031 85.3135 75.807C85.5397 76.211 85.8144 76.5503 86.1376 76.825C86.4769 77.0997 86.8566 77.2693 87.2767 77.334V79.7334C86.388 79.6849 85.5882 79.4749 84.8772 79.1033C84.1663 78.7155 83.5604 78.2146 83.0595 77.6006C82.5586 76.9704 82.1708 76.2433 81.8961 75.4192C81.6375 74.5952 81.5083 73.7226 81.5083 72.8016ZM96.0748 60.8043H99.0074V79.6365H96.0748V60.8043ZM106.254 67.4695C106.529 67.7441 106.739 68.0673 106.884 68.4389C107.046 68.7944 107.159 69.1741 107.224 69.5781C107.305 69.9659 107.353 70.3618 107.369 70.7657C107.385 71.1697 107.393 71.5655 107.393 71.9533V79.1517V79.6365H104.437V72.1957C104.437 71.6463 104.412 71.1212 104.364 70.6203C104.315 70.1194 104.202 69.675 104.025 69.2872C103.847 68.8994 103.604 68.6005 103.297 68.3905C102.99 68.1643 102.562 68.0512 102.013 68.0512C101.787 68.0512 101.48 68.0915 101.092 68.1723C100.72 68.237 100.357 68.3501 100.001 68.5117V66.6454C100.437 66.4192 100.906 66.2253 101.407 66.0637C101.924 65.9021 102.425 65.8213 102.91 65.8213C103.637 65.8213 104.251 65.9748 104.752 66.2818C105.253 66.5727 105.753 66.9686 106.254 67.4695Z" fill="black"/>
<path d="M31.5558 60.5648C31.5558 62.3127 31.6307 63.9607 31.7805 65.5089C31.9303 67.0071 32.2549 68.3305 32.7543 69.4792C33.2537 70.6278 34.0029 71.5517 35.0017 72.2509C36.0005 72.9501 37.3239 73.2996 38.972 73.2996C39.6212 73.2996 40.5451 73.1998 41.7437 73C42.9422 72.8002 44.0909 72.4756 45.1896 72.0262V77.5696C43.8911 78.2687 42.4678 78.893 40.9196 79.4423C39.4214 79.9417 37.9232 80.1914 36.425 80.1914C35.2264 80.1914 34.1527 80.0666 33.2038 79.8169C32.2549 79.6171 31.356 79.2925 30.507 78.8431C29.708 78.3436 28.9339 77.7943 28.1848 77.195C27.4357 76.5957 26.6866 75.9215 25.9374 75.1724C25.0885 74.3234 24.4143 73.3496 23.9148 72.2509C23.4154 71.1023 23.0409 69.9286 22.7912 68.7301C22.5914 67.4816 22.4666 66.233 22.4166 64.9845C22.4166 63.736 22.4166 62.5125 22.4166 61.3139V37.5671H31.5558V60.5648ZM57.4001 37.5671V79.8169H49.2348L48.2609 75.4721V37.5671H57.4001Z" fill="black"/>
<path d="M7.43234 24.1878H16.5715L31.4038 58.2723V72.1309H29.0067L16.5715 41.4174V79.3972H7.43234V24.1878ZM49.3076 24.1878H58.4467V79.3972H49.3076V41.4174L36.9473 72.1309H34.4752V58.4221L49.3076 24.1878Z" fill="black"/>
<path d="M73.9266 23.9713V30.114H57.4462V79.1807H48.3819V30.114H31.9015V23.9713H73.9266Z" fill="black"/>
</svg>
